HIERARCHY
ROOT Hips
{
  OFFSET 1.44925e-005 102.336 -0.101585
  CHANNELS 6 Xposition Yposition Zposition Zrotation Xrotation Yrotation
  JOINT LeftUpLeg
  {
    OFFSET 8.9458 -8.66707 0.101652
    CHANNELS 3 Zrotation Xrotation Yrotation
    JOINT LeftLeg
    {
      OFFSET 0 -44.4227 1.3727
      CHANNELS 3 Zrotation Xrotation Yrotation
      JOINT LeftFoot
      {
        OFFSET -0.253549 -42.0924 -1.46059
        CHANNELS 3 Zrotation Xrotation Yrotation
        JOINT LeftToes
        {
          OFFSET -0.04 -4.41509 8.4991
          CHANNELS 3 Zrotation Xrotation Yrotation
          End Site
          {
            OFFSET 0.08 -0.047448 9.77979
          }
        }
      }
    }
  }
  JOINT Spine
  {
    OFFSET 0 11.8905 0
    CHANNELS 3 Zrotation Xrotation Yrotation
    JOINT Spine1
    {
      OFFSET 0 25.6574 0.127663
      CHANNELS 3 Zrotation Xrotation Yrotation
      JOINT RightShoulder
      {
        OFFSET -8.99 -0.362252 -0.22
        CHANNELS 3 Zrotation Xrotation Yrotation
        JOINT RightArm
        {
          OFFSET -10.2827 -0.00338 0.322123
          CHANNELS 3 Zrotation Xrotation Yrotation
          JOINT RightForeArm
          {
            OFFSET -26.364 0.099144 -1.42434
            CHANNELS 3 Zrotation Xrotation Yrotation
            JOINT RightHand
            {
              OFFSET -22.0324 0.085362 1.02216
              CHANNELS 3 Zrotation Xrotation Yrotation
              End Site
              {
                OFFSET -13.3284 -0.6 1.50291
              }
            }
          }
        }
      }
      JOINT LeftShoulder1
      {
        OFFSET 8.99 -0.362252 -0.22
        CHANNELS 3 Zrotation Xrotation Yrotation
        JOINT LeftArm
        {
          OFFSET 10.2827 -0.00337999 0.322123
          CHANNELS 3 Zrotation Xrotation Yrotation
          JOINT LeftForeArm
          {
            OFFSET 26.2597 0.099144 -1.42434
            CHANNELS 3 Zrotation Xrotation Yrotation
            JOINT LeftHand
            {
              OFFSET 22.0902 0.085362 1.02216
              CHANNELS 3 Zrotation Xrotation Yrotation
              End Site
              {
                OFFSET 13.419 -0.6 1.50291
              }
            }
          }
        }
      }
      JOINT Head
      {
        OFFSET 0 8.73416 0.011341
        CHANNELS 3 Zrotation Xrotation Yrotation
        End Site
        {
          OFFSET -0.29 12.7742 2.51395
        }
      }
    }
  }
  JOINT RightUpLeg
  {
    OFFSET -8.9458 -8.66707 0.101652
    CHANNELS 3 Zrotation Xrotation Yrotation
    JOINT RightLeg
    {
      OFFSET 0 -44.4227 1.3727
      CHANNELS 3 Zrotation Xrotation Yrotation
      JOINT RightFoot
      {
        OFFSET 0.253549 -42.0924 -1.46059
        CHANNELS 3 Zrotation Xrotation Yrotation
        JOINT RightToes
        {
          OFFSET 0.04 -4.41509 8.4991
          CHANNELS 3 Zrotation Xrotation Yrotation
          End Site
          {
            OFFSET -0.08 -0.137448 9.77979
          }
        }
      }
    }
  }
}
MOTION
Frames:	16
Frame Time:	0.0333333
10.9441 80.6001 2.22764 -3.19584 0.684275 -92.4762 2.15116 -36.9884 1.79838 7.70648 81.1483 20.8476 -21.2555 -37.7469 -5.813 -1.34434e-009 8.75236e-006 -1.47796e-008 1.33691 29.877 0.205916 0.394419 -5.37797 0.474459 36.2751 1.78372 0.191416 39.2504 -0.268107 11.0659 4.91382 16.625 21.2919 -11.9412 9.51051 -1.43097 -43.4794 3.45181 -3.38981 -27.5581 -5.69086 -0.882601 2.21555 29.0876 -26.6493 5.82328 9.61819 -0.917488 3.02458 -25.1359 -0.433536 -3.13989 -37.9434 -0.149573 -5.60899 80.1164 -14.2183 17.8378 -38.2214 4.7518 0.0462048 0.000530889 0.662642 
11.0693 80.3572 2.18269 -3.48017 0.675051 -92.5062 2.18709 -36.9957 1.81374 8.11647 81.5952 20.4389 -21.3656 -37.7927 -5.85465 -1.34434e-009 8.75236e-006 -1.47796e-008 1.187 29.8746 0.305583 0.497106 -5.25664 0.531119 36.1173 1.78407 0.200872 39.3058 -0.679561 11.2427 4.79166 16.7433 21.5353 -12.0789 9.49966 -1.36711 -43.634 3.46202 -3.38966 -27.1998 -6.26276 -1.10797 2.5507 29.4518 -27.4212 5.82328 9.61819 -0.917488 2.98227 -24.9541 -0.680829 -3.1915 -37.964 -0.239291 -5.85788 80.5769 -13.8381 17.7857 -38.3817 4.76461 0.0462048 0.000530889 0.662642 
11.1334 80.2869 2.13069 -3.75058 0.68106 -92.5147 2.2413 -36.7524 1.83448 8.17099 81.6582 20.3408 -21.4371 -38.0005 -5.91959 -1.34434e-009 8.75236e-006 -1.47796e-008 0.926031 29.7434 0.419002 0.689697 -5.14757 0.562584 35.9208 1.78468 0.214765 39.4331 -0.98198 11.3059 4.72384 16.9155 21.5094 -12.0364 9.48892 -1.23873 -43.872 3.48556 -3.40062 -26.7536 -6.69681 -1.23878 2.77567 29.6515 -28.0643 5.82328 9.61819 -0.917488 2.91061 -24.7367 -0.948484 -3.18548 -37.7348 -0.295337 -5.89643 80.6579 -13.7436 17.7898 -38.6238 4.80818 0.0462048 0.000530889 0.662642 
11.1519 80.4494 2.09168 -4.03666 0.732353 -92.4194 2.24418 -36.301 1.71856 7.87184 81.3484 20.6051 -21.3302 -37.9332 -5.87414 -1.34434e-009 8.75236e-006 -1.47796e-008 0.744479 29.5918 0.404676 0.883961 -5.12932 0.481149 35.9318 1.7855 0.216693 39.4315 -1.16003 11.3173 4.69589 17.1847 21.2287 -11.7501 9.49686 -1.21337 -43.8748 3.49138 -3.41169 -26.5555 -7.18165 -1.22648 3.01291 29.8952 -28.5673 5.82328 9.61819 -0.917488 2.87133 -24.5231 -1.0671 -3.20932 -37.2403 -0.483585 -5.6925 80.3246 -13.9409 17.6475 -38.5788 4.75829 0.0462048 0.000530889 0.662642 
11.1361 80.8597 2.05869 -4.36062 0.790967 -92.2733 2.20895 -35.5815 1.53429 7.23557 80.5944 21.2087 -21.0517 -37.5068 -5.70392 -1.34434e-009 8.75236e-006 -1.47796e-008 0.73863 29.4237 0.286458 0.929946 -5.12955 0.35847 36.1119 1.78644 0.20563 39.3896 -1.4452 11.2521 4.73991 17.5594 20.7237 -11.5418 9.50812 -1.25372 -43.6588 3.47147 -3.40462 -26.5819 -7.52313 -1.22987 3.14119 30.0634 -28.6867 5.82328 9.61819 -0.917488 2.83733 -24.3173 -1.07516 -3.28521 -36.4389 -0.777476 -5.25101 79.5209 -14.3325 17.3272 -38.2149 4.60164 0.0462048 0.000530889 0.662642 
11.0811 81.4967 2.01647 -4.63461 0.801038 -92.1828 2.18675 -34.5982 1.4465 6.35932 79.312 22.0053 -20.6777 -37.0442 -5.50215 -1.34434e-009 8.75236e-006 -1.47796e-008 0.740396 29.1517 0.209367 0.892375 -5.13298 0.292777 36.2408 1.78744 0.196331 39.4504 -1.93001 11.0742 4.90263 18.0317 20.0125 -11.5548 9.5094 -1.27294 -43.5462 3.4572 -3.39303 -26.489 -7.44524 -1.32039 2.95173 29.8759 -28.2744 5.82328 9.61819 -0.917488 2.69415 -24.0984 -1.11927 -3.37341 -35.4132 -1.03684 -4.66352 78.2314 -14.8095 16.9254 -37.7982 4.4155 0.0462048 0.000530889 0.662642 
10.9933 82.3638 1.97354 -4.7918 0.774518 -92.1553 2.19253 -33.4426 1.47661 5.42912 77.5024 22.802 -20.1457 -36.5391 -5.2524 -1.34434e-009 8.75236e-006 -1.47796e-008 0.606618 28.743 0.216997 0.962464 -5.17395 0.264535 36.2744 1.78844 0.195848 39.5665 -2.51141 10.7956 5.1411 18.6504 19.2038 -11.6227 9.51262 -1.33448 -43.5747 3.45778 -3.39092 -26.2882 -7.03982 -1.38794 2.56775 29.4392 -27.5837 5.82328 9.61819 -0.917488 2.43234 -23.8518 -1.19287 -3.45583 -34.2618 -1.25091 -4.04269 76.4619 -15.2931 16.4209 -37.2856 4.18894 0.0462048 0.000530889 0.662642 
10.8889 83.4819 1.94787 -4.8959 0.777505 -92.11 2.22239 -32.1063 1.52075 4.57357 75.1853 23.4913 -19.3696 -35.7197 -4.88338 -1.34434e-009 8.75236e-006 -1.47796e-008 0.463076 28.2437 0.216963 1.151 -5.21165 0.209691 36.3486 1.78937 0.193699 39.6283 -3.13843 10.4187 5.34975 19.4179 18.4657 -11.6306 9.52627 -1.48618 -43.5361 3.45214 -3.38979 -26.2576 -6.58415 -1.33649 2.25778 29.0876 -26.9451 5.82328 9.61819 -0.917488 2.17783 -23.5378 -1.18531 -3.54677 -32.9043 -1.5408 -3.44705 74.1638 -15.706 15.7691 -36.4269 3.87484 0.0462048 0.000530889 0.662642 
10.7636 84.8194 1.93597 -5.01504 0.820122 -92.0129 2.26821 -30.5084 1.53148 3.84036 72.3696 24.0198 -18.4651 -34.6197 -4.44516 -1.34434e-009 8.75236e-006 -1.47796e-008 0.455714 27.6782 0.161673 1.31341 -5.18595 0.136634 36.4741 1.79017 0.182576 39.6821 -3.96747 9.96401 5.49852 20.3786 17.7847 -11.6301 9.53488 -1.57978 -43.4935 3.45209 -3.39059 -26.3083 -6.14598 -1.18987 2.02898 28.8358 -26.3866 5.82328 9.61819 -0.917488 1.9919 -23.1104 -1.10961 -3.65576 -31.2346 -1.94987 -2.91217 71.323 -15.9753 15.0443 -35.2589 3.50947 0.0462048 0.000530889 0.662642 
10.6035 86.2947 1.92364 -5.11157 0.838748 -91.9309 2.31235 -28.6825 1.58565 3.2417 69.1179 24.3527 -17.6233 -33.4591 -4.03424 -1.34434e-009 8.75236e-006 -1.47796e-008 0.498918 27.0207 0.109564 1.38779 -5.12505 0.0914282 36.5186 1.79076 0.171698 39.8233 -5.11263 9.52673 5.684 21.6301 16.9731 -11.6554 9.52555 -1.48746 -43.6313 3.46494 -3.39576 -26.1859 -5.65855 -0.992764 1.73948 28.4753 -25.7854 5.82328 9.61819 -0.917488 1.82053 -22.5634 -1.0802 -3.77468 -29.3407 -2.37341 -2.46764 68.049 -16.1004 14.3126 -34 3.14893 0.0462048 0.000530889 0.662642 
10.4141 87.8468 1.91258 -5.13647 0.801516 -91.9295 2.34766 -26.7376 1.77017 2.76801 65.5283 24.5103 -16.826 -32.2226 -3.6434 -1.34434e-009 8.75236e-006 -1.47796e-008 0.476174 26.2733 0.0930847 1.40229 -5.10803 0.0740556 36.4766 1.79108 0.168957 39.9797 -6.29313 9.14462 5.96851 22.9735 16.0503 -11.6571 9.5118 -1.33868 -43.7861 3.48094 -3.40434 -26.0521 -5.15712 -0.737332 1.4028 28.0266 -25.1352 5.82328 9.61819 -0.917488 1.6544 -21.8689 -1.11362 -3.88362 -27.3666 -2.71327 -2.11586 64.4585 -16.1262 13.5819 -32.6765 2.80058 0.0462048 0.000530889 0.662642 
10.2074 89.4455 1.91214 -5.1213 0.747542 -91.975 2.37542 -24.7002 2.04778 2.39766 61.6646 24.5702 -15.8988 -30.7894 -3.21664 -1.34434e-009 8.75236e-006 -1.47796e-008 0.467841 25.4817 0.0591557 1.33477 -5.16161 0.0519946 36.4882 1.79107 0.168969 39.9984 -7.04701 8.69138 6.22662 23.9361 15.3538 -11.5767 9.51338 -1.32515 -43.7251 3.47626 -3.40418 -26.1774 -4.72843 -0.418896 1.10796 27.7112 -24.482 5.82328 9.61819 -0.917488 1.54911 -20.9659 -1.12519 -3.96048 -25.3072 -2.98579 -1.83658 60.5828 -16.0634 12.9461 -31.1959 2.47504 0.0462048 0.000530889 0.662642 
9.98065 91.0448 1.92022 -5.11454 0.708489 -91.9876 2.37004 -22.5501 2.29285 2.1109 57.5889 24.6071 -14.8148 -29.2209 -2.76785 -1.34434e-009 8.75236e-006 -1.47796e-008 0.578357 24.6548 -0.0281863 1.15036 -5.22106 0.0150046 36.5894 1.79066 0.167348 39.8754 -7.29707 8.08717 6.3074 24.3735 15.0942 -11.4135 9.52845 -1.42861 -43.6076 3.46566 -3.40077 -26.4045 -4.42901 -0.082977 0.829843 27.6554 -23.8209 5.82328 9.61819 -0.917488 1.48228 -19.9382 -1.09752 -4.0044 -23.1182 -3.24082 -1.61351 56.4816 -15.931 12.4873 -29.5753 2.19011 0.0462048 0.000530889 0.662642 
9.7294 92.5832 1.93184 -5.1216 0.666977 -91.9468 2.3085 -20.3269 2.45577 1.89097 53.4168 24.6233 -13.7482 -27.6407 -2.35629 -1.34434e-009 8.75236e-006 -1.47796e-008 0.732116 23.7525 -0.13141 0.926275 -5.18232 -0.0285792 36.6876 1.78977 0.162604 39.6933 -7.29676 7.48773 6.28363 24.5195 15.0757 -11.2584 9.5429 -1.52959 -43.6618 3.47295 -3.40709 -26.4968 -4.21799 0.221339 0.537729 27.7294 -23.2054 5.82328 9.61819 -0.917488 1.38229 -19.0584 -1.10441 -4.03427 -20.8602 -3.48405 -1.4416 52.3016 -15.8097 12.0337 -27.8863 1.91544 0.0462048 0.000530889 0.662642 
9.45969 94.021 1.94763 -5.14284 0.622268 -91.8798 2.23467 -18.088 2.61494 1.71928 49.2629 24.5452 -12.8048 -26.061 -2.00046 -1.34434e-009 8.75236e-006 -1.47796e-008 0.792343 22.7705 -0.204316 0.81945 -4.99942 -0.0796411 36.7394 1.78835 0.159012 39.4498 -7.15089 7.07193 6.33323 24.4408 15.0464 -11.2307 9.54894 -1.60032 -43.7681 3.48645 -3.41794 -26.5763 -4.07857 0.484942 0.303534 27.8225 -22.7701 5.82328 9.61819 -0.917488 1.27175 -18.4774 -1.17773 -4.04892 -18.5922 -3.72672 -1.31262 48.1363 -15.7408 11.3546 -26.1539 1.61449 0.0462048 0.000530889 0.662642 
9.17708 95.3427 1.95968 -5.17996 0.594821 -91.8051 2.21086 -15.8583 2.86611 1.57903 45.1653 24.3121 -11.8983 -24.4767 -1.68013 -1.34434e-009 8.75236e-006 -1.47796e-008 0.714576 21.7573 -0.229227 0.913869 -4.73639 -0.134511 36.7411 1.78614 0.155985 39.1871 -6.9838 6.79153 6.45671 24.1826 14.9846 -11.3119 9.54419 -1.62277 -43.8133 3.49251 -3.42325 -26.7438 -3.92905 0.723323 0.167285 27.8688 -22.5434 5.82328 9.61819 -0.917488 1.20252 -17.9751 -1.25674 -4.02653 -16.3103 -3.98715 -1.21131 43.982 -15.6634 10.5781 -24.4089 1.32098 0.0462048 0.000530889 0.662642 
